<svg xmlns="http://www.w3.org/2000/svg" xmlns:xlink="http://www.w3.org/1999/xlink" version="1.1" width="256" height="256" viewBox="0 0 256 256" xml:space="preserve">

<defs>
</defs>
<g style="stroke: none; stroke-width: 0; stroke-dasharray: none; stroke-linecap: butt; stroke-linejoin: miter; stroke-miterlimit: 10; fill: none; fill-rule: nonzero; opacity: 1;" transform="translate(1.4065934065934016 1.4065934065934016) scale(2.81 2.81)" >
	<path d="M 79.055 10.945 c -14.593 -14.593 -38.253 -14.593 -52.847 0 c -12.026 12.026 -14.132 30.206 -6.337 44.398 L 0.4 74.815 c -0.533 0.533 -0.533 1.398 0 1.931 L 13.253 89.6 c 0.533 0.533 1.398 0.533 1.931 0 l 19.472 -19.472 c 14.192 7.795 32.372 5.69 44.398 -6.337 C 93.648 49.198 93.648 25.538 79.055 10.945 z M 36.473 53.527 c -8.924 -8.924 -8.924 -23.393 0 -32.317 s 23.393 -8.924 32.317 0 s 8.924 23.393 0 32.317 S 45.397 62.451 36.473 53.527 z" style="stroke: none; stroke-width: 1; stroke-dasharray: none; stroke-linecap: butt; stroke-linejoin: miter; stroke-miterlimit: 10; fill: rgb(239,239,239); fill-rule: nonzero; opacity: 1;" transform=" matrix(1 0 0 1 0 0) " stroke-linecap="round" />
</g>
</svg>